<svg width="158" height="74" viewBox="0 0 158 74" fill="none" xmlns="http://www.w3.org/2000/svg">
<path d="M39.5 48.8982H38.5977H32.2316C29.0235 48.8982 26.6675 48.6964 25.3141 47.233C24.6123 46.577 24.111 45.6687 23.8103 44.609C23.4594 43.4989 23.2589 42.2374 23.2589 41.2786H37.9461V32.0947H23.309C23.5596 29.5212 24.3617 27.4019 25.8154 26.0394C27.2189 24.677 29.3242 24.4751 32.1815 24.4751H39.4499V15.2408H32.0311C25.2138 15.2408 20.2011 17.0574 16.993 20.6906C13.7849 24.3238 12.1307 29.8745 12.1307 37.4436C12.1307 41.2786 12.6821 44.609 13.7849 47.4349C14.8376 50.2102 16.4918 52.5314 18.6472 54.348C20.4017 55.8114 22.2563 56.7701 24.1612 57.3252C26.0159 57.8803 28.5723 58.1326 31.8306 58.1326H39.5V48.8982V48.8982ZM75.9423 0.00158691V7.26796V15.2912H60.5032C55.3902 15.2912 51.8813 16.4014 49.4753 18.5207C47.0692 20.6906 45.5654 24.0714 45.5654 28.6129C45.5654 30.7828 46.1168 32.8012 47.019 34.315C49.1244 37.7968 53.5355 40.0676 59.7513 41.2282C63.611 41.9851 63.5609 43.5998 63.7113 44.6595C63.9619 46.4761 62.1072 48.8478 59.4505 48.8478H42.5577V57.9812H57.9968C63.0596 57.9812 66.8192 56.9215 69.2253 54.8022C71.6815 52.6828 72.8845 48.8478 72.8845 44.4072C72.8845 39.9666 71.6313 37.3931 69.3255 35.7784C65.7665 33.2553 60.5533 33.5581 56.6935 31.8424C55.4905 31.2874 54.6885 30.3791 54.6885 28.7139C54.6885 26.0394 56.092 24.3742 60.4029 24.3742H75.9924V24.4247V65.0962V73.3213H36.3921L36.4423 73.3718C16.3414 73.3718 0 56.9215 0 36.6867C0 17.562 14.5368 1.86864 33.0838 0.15297C33.585 0.0520478 34.0863 0.00158691 34.5374 0.00158691C34.6377 0.00158691 34.6878 0.00158691 34.7881 0.00158691C34.9886 0.00158691 35.1891 0.00158691 35.3896 0.00158691H35.5901C35.8909 0.00158691 36.1415 0.00158691 36.4423 0.00158691H75.9423Z" fill="#DC3A32"/>
<path d="M130.631 24.4231H121.508V15.2897H130.631V24.4231ZM130.631 58.0805H121.508V27.5012H130.631V58.0805ZM122.66 0C122.61 0 122.61 0 122.56 0H122.36C122.059 0 121.758 0 121.508 0H82.0076V15.2897H118.45V24.4736H104.815V58.131H95.6922V24.4736H82.0076V73.3702H121.508V73.4207C141.659 73.4207 158 56.9704 158 36.6851C158 16.753 142.26 0.605531 122.66 0Z" fill="#0A71B9"/>
</svg>
