<svg width="80" height="80" viewBox="0 0 80 80" fill="none" xmlns="http://www.w3.org/2000/svg">
<g clip-path="url(#clip0_1_173)">
<path d="M25.668 69.3075C25.0382 66.6839 23.2169 64.6107 20.834 63.5613C21.7106 62.1935 22.2297 60.6193 22.2297 58.8989C22.2297 54.1677 18.3744 50.314 13.6084 50.314C8.87651 50.314 5.02119 54.1677 5.02119 58.8989C5.02119 60.6193 5.51481 62.1935 6.38289 63.5613C4.03396 64.6107 2.21268 66.6839 1.54885 69.3075L0.110551 75.157C-0.204342 76.3183 0.0765086 77.5398 0.808424 78.486C1.56587 79.4409 2.68076 80 3.91481 80H23.3616C24.5531 80 25.6765 79.4409 26.4425 78.4946C27.1829 77.5484 27.4212 76.3269 27.1403 75.1656L25.668 69.3075ZM13.6169 54.9849C15.7871 54.9849 17.5403 56.7398 17.5403 58.9075C17.5403 61.0409 15.7957 62.8043 13.6169 62.8043C11.4808 62.8043 9.72757 61.0495 9.72757 58.9075C9.72757 56.7312 11.4808 54.9849 13.6169 54.9849ZM4.89353 75.3032L6.11906 70.4688C6.53608 68.714 8.11906 67.4839 9.9063 67.4839H17.3361C19.1574 67.4839 20.6978 68.714 21.1574 70.4688L22.3488 75.3032H4.89353Z" fill="#0A71B9"/>
<path d="M30.2979 29.6774H49.7022C50.9277 29.6774 52.0511 29.1183 52.783 28.172C53.5575 27.2258 53.7958 25.9957 53.5234 24.843L52.0511 18.9935C51.3873 16.3613 49.566 14.2968 47.217 13.2473C48.0936 11.8796 48.5788 10.3054 48.5788 8.58495C48.5873 3.85376 44.7319 0 40 0C35.2681 0 31.4128 3.85376 31.4128 8.58495C31.4128 10.3054 31.9064 11.8796 32.7745 13.2473C30.4256 14.2968 28.6043 16.3699 27.9405 18.9935L26.5022 24.843C26.1873 25.9957 26.4681 27.2258 27.2 28.172C27.949 29.1183 29.0639 29.6774 30.2979 29.6774ZM40 4.66237C42.1702 4.66237 43.9234 6.4172 43.9234 8.58495C43.9234 10.7183 42.1702 12.4731 40 12.4731C37.8639 12.4731 36.1107 10.7183 36.1107 8.58495C36.1107 6.4086 37.8639 4.66237 40 4.66237ZM32.5022 20.1462C32.9192 18.3914 34.5022 17.1699 36.2894 17.1699H43.7192C45.5405 17.1699 47.0809 18.4 47.5064 20.1462L48.7319 24.9806H31.2766L32.5022 20.1462Z" fill="#0A71B9"/>
<path d="M79.8723 75.1655L78.434 69.3161C77.7702 66.6924 75.9489 64.6193 73.5999 63.5698C74.4765 62.2021 74.9616 60.6279 74.9616 58.9075C74.9616 54.1763 71.1063 50.3225 66.3744 50.3225C61.6425 50.3225 57.7872 54.1763 57.7872 58.9075C57.7872 60.6279 58.2808 62.2021 59.1489 63.5698C56.7659 64.6193 54.9446 66.6924 54.3148 69.3161L52.8425 75.1655C52.5616 76.3268 52.8085 77.5483 53.5744 78.4946C54.3148 79.4408 55.4297 79.9999 56.6297 79.9999H76.0851C77.3106 79.9999 78.434 79.4408 79.1659 78.4946C79.9063 77.5483 80.1872 76.3182 79.8723 75.1655ZM66.3829 54.9849C68.5191 54.9849 70.2723 56.7397 70.2723 58.9075C70.2723 61.0408 68.5276 62.8042 66.3829 62.8042C64.2127 62.8042 62.4595 61.0494 62.4595 58.9075C62.4595 56.7311 64.2127 54.9849 66.3829 54.9849ZM57.6595 75.3032L58.851 70.4688C59.3021 68.7139 60.8425 67.4838 62.6723 67.4838H70.1021C71.8893 67.4838 73.4638 68.7139 73.8893 70.4688L75.1148 75.3032H57.6595Z" fill="#0A71B9"/>
<path d="M50.5872 51.3032L42.3489 46.5376V37.144C42.3489 35.8451 41.2936 34.7957 40 34.7957C38.7064 34.7957 37.6511 35.8451 37.6511 37.144V46.572L29.4894 51.3032C28.366 51.9397 27.983 53.3677 28.6128 54.4946C29.0638 55.2688 29.8383 55.6903 30.6468 55.6903C31.0638 55.6903 31.4553 55.5871 31.8383 55.372L40.034 50.6408L48.2383 55.372C48.5872 55.5871 49.0128 55.6903 49.3958 55.6903C50.2043 55.6903 51.0128 55.2688 51.4298 54.4946C52.0851 53.3677 51.7021 51.9311 50.5872 51.3032Z" fill="#DC3A32"/>
</g>
<defs>
<clipPath id="clip0_1_173">
<rect width="80" height="80" fill="white"/>
</clipPath>
</defs>
</svg>
