<svg width="80" height="80" viewBox="0 0 80 80" fill="none" xmlns="http://www.w3.org/2000/svg">
<g clip-path="url(#clip0_57_1794)">
<path d="M8.13524 67.6551C7.83787 67.6551 7.67344 67.492 7.57548 67.3949C7.51251 67.3324 7.37957 67.1034 7.41106 66.8431L11.8471 33.9824C12.2774 30.7689 15.1007 28.3397 18.3857 28.3397H38.2115V23.9601H34.1778C35.3253 22.3394 36.0145 20.3266 36.0145 18.1542C36.0145 12.5739 31.386 8 25.7395 8C20.0545 8 15.4575 12.5739 15.4575 18.1542C15.4575 20.3579 16.1467 22.3707 17.3292 24.0226C12.3054 24.5084 8.13524 28.3709 7.47753 33.4306L3.04498 66.2566C2.84557 67.7176 3.30736 69.1786 4.25894 70.2787C5.24551 71.3823 6.65889 71.9965 8.13524 71.9965H38.208V67.6551H8.13524ZM25.7395 12.3483C28.9581 12.3483 31.6169 14.9754 31.6169 18.1542C31.6169 21.3643 28.9581 23.9601 25.7395 23.9601C22.4859 23.9601 19.8621 21.3643 19.8621 18.1542C19.8586 14.9754 22.4859 12.3483 25.7395 12.3483Z" fill="#DC3A32"/>
<path d="M77.9545 66.2566L73.5219 33.4306C72.8642 28.3709 68.694 24.5084 63.6702 24.0226C64.8527 22.3707 65.5419 20.3579 65.5419 18.1542C65.5419 12.5739 60.9449 8 55.2634 8C49.5854 8 44.985 12.5739 44.985 18.1542C44.985 20.3266 45.6742 22.3394 46.8216 23.9601H44.6876H38.2084V28.3397H38.2819V39.9861C37.0329 39.4309 35.6231 39.2053 34.2412 39.3059C32.0756 39.4343 30.0045 40.3748 28.4967 41.9295C26.9539 43.4877 26.0653 45.5005 25.9988 47.6382C25.9008 50.0397 26.786 52.3093 28.4652 54.0306C30.1375 55.7484 32.373 56.6923 34.8044 56.6923C35.9274 56.6923 37.026 56.4945 38.044 56.0781L38.2119 55.8907V56.0087C38.2364 55.9983 38.2609 55.9879 38.2854 55.9774V67.6551H38.2119V72.0035H40.5174H72.8397C74.3475 72.0035 75.7609 71.3857 76.716 70.2856C77.6921 69.1786 78.1539 67.7176 77.9545 66.2566ZM55.2634 12.3483C58.517 12.3483 61.1409 14.9754 61.1409 18.1542C61.1409 21.3643 58.517 23.9601 55.2634 23.9601C52.0134 23.9601 49.386 21.3643 49.386 18.1542C49.3825 14.9754 52.0134 12.3483 55.2634 12.3483ZM73.3925 67.3914C73.326 67.4886 73.1301 67.6517 72.8362 67.6517H42.6865V67.5614V54.7732C42.6865 53.4753 41.9658 52.2434 40.8148 51.5944C39.6673 50.9767 38.2574 51.0114 37.1379 51.6916C36.4172 52.1115 35.6266 52.3405 34.8079 52.3405C33.5905 52.3405 32.4745 51.8512 31.6208 51.0114C30.7987 50.1334 30.3719 48.9986 30.4034 47.8326C30.5048 45.6254 32.31 43.7757 34.5106 43.6473C35.4307 43.5814 36.3158 43.807 37.1029 44.265C38.2539 44.9452 39.6638 44.9765 40.8463 44.3587C41.9973 43.7133 42.683 42.5091 42.683 41.1834V28.3397H47.3254H62.6207C65.9058 28.3397 68.729 30.7724 69.1593 33.9824L73.5954 66.8431C73.6199 67.1033 73.4904 67.3324 73.3925 67.3914Z" fill="#0A71B9"/>
</g>
<defs>
<clipPath id="clip0_57_1794">
<rect width="75" height="64" fill="white" transform="translate(3 8)"/>
</clipPath>
</defs>
</svg>
