<svg width="80" height="80" viewBox="0 0 80 80" fill="none" xmlns="http://www.w3.org/2000/svg">
<g clip-path="url(#clip0_57_1793)">
<path fill-rule="evenodd" clip-rule="evenodd" d="M60.3155 57.8949C59.2056 58.7175 58.569 60.032 58.569 61.3788V73.5965H32.4704V68.6046C32.4704 66.2094 30.4546 64.2336 28.0064 64.2336H20.4167C18.3357 64.2336 16.6545 62.5885 16.6545 60.5562V51.1288C16.6545 49.9111 15.6426 48.9594 14.4021 48.9594H10.6726C10.0687 48.9594 9.76672 48.5643 9.66062 48.403C9.56269 48.2417 9.35867 47.8143 9.62798 47.3143L15.7732 35.7175C16.1404 34.9998 16.3444 34.2417 16.3771 33.4514C16.4832 25.1046 19.062 18.5724 24.032 14.1046C26.8883 11.5401 30.4465 9.66912 34.6494 8.55622C39.1542 7.33848 43.2428 7.27396 45.9033 7.47558C52.3177 7.87074 58.667 10.532 63.3023 14.7659C68.6804 19.6611 71.4959 26.3224 71.4959 34.0804C71.5041 48.4353 62.9351 55.9594 60.3155 57.8949ZM66.3953 11.5482C60.9846 6.62074 53.6317 3.54009 46.1726 3.07235C41.8718 2.81428 37.473 3.2417 33.4415 4.32235C28.5776 5.63687 24.3748 7.83848 21.0206 10.8949C15.0713 16.2175 12.0191 23.8062 11.8804 33.3949C11.8804 33.4998 11.8478 33.5965 11.7825 33.6933L5.63729 45.282C4.73143 47.024 4.79672 49.024 5.84131 50.7014C6.87775 52.3465 8.66499 53.3304 10.6807 53.3304H12.1579V60.5562C12.1579 65.024 15.8466 68.6369 20.4167 68.6369H27.9737V75.7982C27.9737 77.0159 28.9775 77.9998 30.2261 77.9998H60.8214C62.0619 77.9998 63.0738 77.0159 63.0738 75.7982V61.3788C66.0934 59.1127 76.0007 50.4433 76.0007 34.0804C76.0007 25.0804 72.6792 17.2982 66.3953 11.5482Z" fill="#0A71B9"/>
<path fill-rule="evenodd" clip-rule="evenodd" d="M39.2513 30.1613C39.235 30.1613 39.235 30.1613 39.2268 30.1613C37.8394 30.1451 36.7296 29.0242 36.7296 27.6532C36.7459 26.9919 37.007 26.3709 37.4885 25.8951C37.9537 25.4435 38.5821 25.1935 39.2513 25.1935H39.2676C40.655 25.1935 41.773 26.3145 41.7648 27.6855C41.7485 29.0564 40.6223 30.1613 39.2513 30.1613ZM39.2758 23.4435C38.1251 23.4274 37.0478 23.8629 36.2317 24.6532C35.4157 25.4435 34.9505 26.5161 34.9505 27.6451C34.926 29.9758 36.8357 31.9032 39.2105 31.9274C39.2268 31.9274 39.235 31.9274 39.2513 31.9274C41.6016 31.9274 43.5194 30.0403 43.5521 27.7097C43.5603 25.379 41.6506 23.4516 39.2758 23.4435ZM44.7844 31.9839C44.4335 32.4193 44.0336 32.8145 43.5929 33.1613C43.0706 33.5726 42.8829 34.2822 43.144 34.8871L43.8214 36.4919L42.328 37.1129L41.6506 35.4919C41.3976 34.8871 40.7529 34.5161 40.0919 34.5968C39.5288 34.6613 38.9575 34.6613 38.4107 34.5968C37.7415 34.5161 37.105 34.8871 36.852 35.4919L36.1746 37.1129L34.6812 36.508L35.3585 34.8871C35.6115 34.2822 35.4238 33.5645 34.9097 33.1613C34.4527 32.8145 34.0528 32.4193 33.71 31.9839C33.2938 31.4677 32.592 31.2822 31.9717 31.5322L30.3314 32.2016L29.703 30.7258L31.3434 30.0564C31.9554 29.8064 32.3308 29.1693 32.2492 28.5161C32.1839 27.9597 32.1839 27.4113 32.2492 26.8548C32.3308 26.1935 31.9554 25.5645 31.3434 25.3145L29.703 24.6451L30.3232 23.1613L31.9473 23.8306C32.5757 24.0806 33.2857 23.8951 33.6937 23.379C34.0365 22.9274 34.4363 22.5322 34.877 22.1935C35.4075 21.7822 35.5952 21.0887 35.3422 20.4758L34.6648 18.8548L36.1583 18.2339L36.8357 19.8548C37.0886 20.4597 37.7334 20.8306 38.3862 20.75C38.9493 20.6855 39.5206 20.6855 40.0837 20.75C40.7366 20.8306 41.3813 20.4597 41.6343 19.8548L42.3116 18.2339L43.8051 18.8548L43.1277 20.4677C42.8747 21.0887 43.0624 21.7903 43.5929 22.1935C44.0336 22.5322 44.4335 22.9355 44.7844 23.371C45.2006 23.8951 45.9188 24.0806 46.5308 23.8306L48.1793 23.1613L48.7914 24.6371L47.1511 25.3064C46.539 25.5564 46.1636 26.1935 46.2452 26.8387C46.3105 27.3951 46.3105 27.9597 46.2452 28.5161C46.1636 29.1613 46.539 29.7984 47.1511 30.0484L48.7914 30.7177L48.1793 32.1935L46.539 31.5242C45.9188 31.2742 45.2006 31.4597 44.7844 31.9839ZM46.0575 33.2339L47.7631 33.9355C48.5221 34.25 49.3953 33.8951 49.7136 33.1451L50.5542 31.129C50.7174 30.758 50.7174 30.3629 50.5542 29.9919C50.4073 29.6371 50.1135 29.3468 49.7544 29.2016L48.0488 28.5C48.1059 27.9435 48.1059 27.3951 48.0488 26.8548L49.7544 26.1532C50.5134 25.8387 50.8724 24.9839 50.5542 24.2258L49.7136 22.2097C49.5504 21.8387 49.2729 21.5645 48.8975 21.4193C48.5384 21.258 48.1222 21.258 47.7631 21.4193L46.0575 22.121C45.6984 21.6855 45.3067 21.3064 44.866 20.9435L45.576 19.258C45.8943 18.508 45.5352 17.6451 44.7762 17.3306L42.736 16.5C42.3606 16.3548 41.9607 16.3548 41.5853 16.5C41.2262 16.6451 40.9324 16.9355 40.7855 17.2903L40.0755 18.9758C39.5124 18.9355 38.9575 18.9355 38.4107 18.9919L37.7007 17.3064C37.5375 16.9355 37.26 16.6613 36.8846 16.5C36.5255 16.3548 36.1257 16.3548 35.7503 16.5L33.71 17.3468C33.3346 17.4919 33.0571 17.7822 32.9103 18.1371C32.747 18.508 32.747 18.9032 32.9103 19.258L33.6203 20.9435C33.1796 21.2984 32.796 21.6935 32.4369 22.121L30.7313 21.4193C30.3722 21.2742 29.956 21.2742 29.5969 21.4193C29.2215 21.5645 28.944 21.8548 28.7808 22.2097L27.9403 24.2419C27.6301 24.9839 27.9974 25.8548 28.74 26.1532L30.462 26.8548C30.4048 27.4113 30.4048 27.9597 30.462 28.5L28.74 29.2097C28.3809 29.3548 28.1035 29.629 27.9403 30C27.7934 30.3548 27.7934 30.7661 27.9403 31.1209L28.7971 33.1371C28.944 33.508 29.2378 33.7822 29.5969 33.9435C29.9723 34.0887 30.3722 34.0887 30.7313 33.9435L32.4369 33.2419C32.796 33.6613 33.1959 34.0564 33.6203 34.4032L32.9103 36.0887C32.7634 36.4597 32.7634 36.8548 32.9103 37.2258C33.0571 37.5806 33.3509 37.8629 33.71 38.0161L35.7666 38.8468C35.938 38.9274 36.142 38.9677 36.3297 38.9677C36.9173 38.9677 37.464 38.6209 37.7089 38.0564L38.4189 36.3709C38.982 36.4274 39.5369 36.4274 40.0837 36.3709L40.7937 38.0564C40.9569 38.4113 41.2344 38.7016 41.6098 38.8468C41.9689 38.9919 42.3851 38.9919 42.7442 38.8468L44.7844 38.0161C45.5434 37.7016 45.9024 36.8387 45.6005 36.0887L44.8905 34.4032C45.3067 34.0564 45.6903 33.6693 46.0575 33.2339ZM52.2761 42.7661H52.2598C51.6722 42.7661 51.1009 42.5403 50.6766 42.1209C50.2604 41.7016 50.0237 41.1451 50.0237 40.5564C50.0237 39.9597 50.2522 39.3951 50.6766 38.9758C51.1009 38.5645 51.664 38.3306 52.2598 38.3306C53.5002 38.3306 54.5122 39.3226 54.5122 40.5484C54.5122 41.1451 54.2837 41.7097 53.8593 42.129C53.435 42.5322 52.8719 42.7661 52.2761 42.7661ZM57.393 39.6613H56.1934C56.0873 39.2097 55.9159 38.8064 55.6711 38.4193L56.5116 37.5887C56.8544 37.2339 56.8544 36.6774 56.5116 36.3387C56.1607 35.9919 55.6058 35.9919 55.2549 36.3387L54.398 37.1855C54.0225 36.9516 53.5982 36.7661 53.1412 36.6693V35.4839C53.1412 34.9919 52.7413 34.5968 52.2435 34.5968C51.7538 34.5968 51.3539 34.9919 51.3539 35.4839V36.6693C50.9132 36.758 50.4889 36.9435 50.0971 37.1855L49.2402 36.3548C48.8893 36 48.3344 36.0161 47.9835 36.3548C47.6407 36.7016 47.6407 37.25 47.9835 37.5968L48.824 38.4435C48.5874 38.8226 48.4078 39.2339 48.3017 39.6855H47.1102C46.6124 39.6855 46.2125 40.0806 46.2125 40.5726C46.2125 41.0564 46.6124 41.4597 47.1102 41.4597H48.3099C48.3997 41.8951 48.5792 42.3145 48.8322 42.7016L47.9753 43.5322C47.6325 43.8871 47.6325 44.4435 47.9916 44.7822C48.163 44.9516 48.3915 45.0484 48.62 45.0484C48.8485 45.0484 49.077 44.9597 49.2484 44.7822L50.1053 43.9355C50.4889 44.1855 50.9051 44.3548 51.3621 44.4516V45.6371C51.3621 46.129 51.762 46.5242 52.2598 46.5242C52.7576 46.5242 53.1575 46.129 53.1575 45.6371V44.4516C53.5982 44.3548 54.0225 44.1774 54.4143 43.9355L55.2549 44.7661C55.4262 44.9355 55.6711 45.0322 55.8914 45.0322C56.1199 45.0322 56.3484 44.9435 56.5198 44.7661C56.8707 44.4274 56.8707 43.8709 56.5198 43.5242L55.6629 42.6774C55.9159 42.2984 56.0873 41.8871 56.1852 41.4355H57.3848C57.8827 41.4355 58.2826 41.0403 58.2826 40.5484C58.2907 40.0564 57.8908 39.6613 57.393 39.6613Z" fill="#DC3A32"/>
</g>
<defs>
<clipPath id="clip0_57_1793">
<rect width="71" height="75" fill="white" transform="translate(5 3)"/>
</clipPath>
</defs>
</svg>
