<svg width="158" height="104" viewBox="0 0 158 104" fill="none" xmlns="http://www.w3.org/2000/svg">
<g clip-path="url(#clip0_7_2605)">
<path d="M24.1111 95.2199H29.4245C30.4772 95.2199 31.2792 94.9676 31.8807 94.4125C32.4321 93.8575 32.7329 92.9492 32.7329 91.5363C32.7329 90.1738 32.4321 89.2151 31.8807 88.7104C31.3293 88.1554 30.5273 87.9031 29.4245 87.9031H24.1111V95.2199ZM21.304 85.6323H29.7754C30.5774 85.6323 31.3795 85.7333 32.1314 85.9856C32.8833 86.1874 33.4848 86.5911 34.0362 87.0452C34.5876 87.4994 34.9886 88.1049 35.2894 88.8618C35.5901 89.6187 35.7405 90.4766 35.7405 91.5363C35.7405 92.5455 35.5901 93.4538 35.2894 94.2107C34.9886 94.9676 34.5375 95.5731 34.0362 96.0273C33.4848 96.4814 32.8833 96.8347 32.1314 97.087C31.3795 97.3393 30.6276 97.4402 29.7754 97.4402H24.1111V104H21.304V85.6323Z" fill="#0A71B9"/>
<path d="M41.6555 85.6323V93.5042H51.2799V85.6323H54.087V104H51.2799V95.775H41.6555V104H38.8484V85.6323H41.6555Z" fill="#0A71B9"/>
<path d="M69.1753 97.0365L65.7666 88.4077L62.3079 97.0365H69.1753ZM63.9119 85.6323H67.6213L75.0401 104H71.9322L70.0274 99.1559H61.5059L59.601 104H56.4932L63.9119 85.6323Z" fill="#0A71B9"/>
<path d="M80.1028 94.0088H86.2182C86.5691 94.0088 86.9701 93.9584 87.3712 93.9079C87.7722 93.807 88.0729 93.7061 88.3737 93.4538C88.6745 93.2519 88.9251 92.8987 89.1256 92.495C89.3261 92.0913 89.4264 91.5363 89.4264 90.9307C89.4264 90.2747 89.3261 89.7701 89.1256 89.3664C88.9251 88.9627 88.6745 88.66 88.3737 88.4077C88.0729 88.2058 87.7221 88.0545 87.3712 87.9535C86.9701 87.9031 86.6193 87.8526 86.2182 87.8526H80.1028V94.0088V94.0088ZM77.2957 85.6323H86.7696C87.5717 85.6323 88.3737 85.7333 89.0253 85.9351C89.7271 86.1369 90.3287 86.4397 90.8299 86.8938C91.3312 87.348 91.7322 87.8526 92.033 88.5591C92.3337 89.2151 92.4841 90.0224 92.4841 90.9307C92.4841 92.1418 92.1332 93.1006 91.4816 93.9584C90.8299 94.7658 89.8775 95.3713 88.6745 95.6741L92.4841 104H89.677L86.0679 96.2796H80.1028V104H77.2957V85.6323V85.6323Z" fill="#0A71B9"/>
<path d="M95.8425 85.6323H100.454L105.968 100.67L111.482 85.6323H115.643V104H112.836V88.8114L107.322 104H104.414L98.6496 88.8114V104H95.8425V85.6323Z" fill="#0A71B9"/>
<path d="M130.831 97.0365L127.423 88.4077L123.964 97.0365H130.831ZM125.568 85.6323H129.277L136.696 104H133.588L131.683 99.1559H123.162L121.257 104H118.149L125.568 85.6323Z" fill="#0A71B9"/>
<path d="M39.5 48.9488H38.5977H32.2316C29.0235 48.9488 26.6675 48.7469 25.3141 47.2836C24.6123 46.6276 24.111 45.7193 23.8103 44.6596C23.4594 43.5494 23.2589 42.2879 23.2589 41.3292H37.9461V32.1453H23.309C23.5596 29.5718 24.3617 27.4524 25.8154 26.09C27.2189 24.7275 29.3242 24.5257 32.1815 24.5257H39.4499V15.2913H32.0311C25.2138 15.2913 20.2011 17.1079 16.993 20.7411C13.7849 24.3743 12.1307 29.925 12.1307 37.4941C12.1307 41.3292 12.6821 44.6596 13.7849 47.4854C14.8376 50.2607 16.4918 52.5819 18.6472 54.3985C20.4017 55.8619 22.2563 56.8207 24.1612 57.3757C26.0159 57.9308 28.5723 58.1831 31.8306 58.1831H39.5V48.9488V48.9488ZM75.9423 0.052124V7.3185V15.3418H60.5032C55.3902 15.3418 51.8813 16.4519 49.4753 18.5713C47.0692 20.7411 45.5654 24.122 45.5654 28.6635C45.5654 30.8333 46.1168 32.8517 47.019 34.3656C49.1244 37.8474 53.5355 40.1181 59.7513 41.2787C63.611 42.0356 63.5609 43.6504 63.7113 44.71C63.9619 46.5266 62.1072 48.8983 59.4505 48.8983H42.5577V58.0317H57.9968C63.0596 58.0317 66.8192 56.9721 69.2253 54.8527C71.6815 52.7333 72.8845 48.8983 72.8845 44.4577C72.8845 40.0172 71.6313 37.4437 69.3255 35.8289C65.7665 33.3059 60.5533 33.6086 56.6935 31.893C55.4905 31.3379 54.6885 30.4296 54.6885 28.7644C54.6885 26.09 56.092 24.4248 60.4029 24.4248H75.9924V24.4752V65.1467V73.3719H36.3921L36.4423 73.4223C16.3414 73.4223 0 56.9721 0 36.7372C0 17.6125 14.5368 1.91918 33.0838 0.203507C33.585 0.102585 34.0863 0.052124 34.5374 0.052124C34.6377 0.052124 34.6878 0.052124 34.7881 0.052124C34.9886 0.052124 35.1891 0.052124 35.3896 0.052124H35.5901C35.8909 0.052124 36.1415 0.052124 36.4423 0.052124H75.9423Z" fill="#DC3A32"/>
<path d="M130.631 24.4736H121.508V15.3402H130.631V24.4736ZM130.631 58.1311H121.508V27.5517H130.631V58.1311ZM122.66 0.0505371C122.61 0.0505371 122.61 0.0505371 122.56 0.0505371H122.36C122.059 0.0505371 121.758 0.0505371 121.508 0.0505371H82.0076V15.3402H118.45V24.5241H104.815V58.1815H95.6922V24.5241H82.0076V73.4207H121.508V73.4712C141.659 73.4712 158 57.0209 158 36.7356C158 16.8036 142.26 0.656068 122.66 0.0505371Z" fill="#0A71B9"/>
</g>
<defs>
<clipPath id="clip0_7_2605">
<rect width="158" height="104" fill="white"/>
</clipPath>
</defs>
</svg>
