<svg width="12" height="11" viewBox="0 0 12 11" fill="none" xmlns="http://www.w3.org/2000/svg">
<path d="M6 10.2591C3.035 10.2591 0.625 8.08544 0.625 5.41126C0.625 2.73709 3.035 0.563477 6 0.563477C8.965 0.563477 11.375 2.73709 11.375 5.41126C11.375 8.08544 8.965 10.2591 6 10.2591ZM6 1.23991C3.45 1.23991 1.375 3.11138 1.375 5.41126C1.375 7.71114 3.45 9.58261 6 9.58261C8.55 9.58261 10.625 7.71114 10.625 5.41126C10.625 3.11138 8.55 1.23991 6 1.23991Z" fill="#171717"/>
<path d="M4.49987 9.80831H3.99987C3.79487 9.80831 3.62487 9.65498 3.62487 9.47009C3.62487 9.2852 3.78487 9.13638 3.98987 9.13187C3.20487 6.71474 3.20487 4.10821 3.98987 1.69108C3.78487 1.68657 3.62487 1.53776 3.62487 1.35287C3.62487 1.16797 3.79487 1.01465 3.99987 1.01465H4.49987C4.61987 1.01465 4.73487 1.06876 4.80487 1.15445C4.87487 1.24464 4.89487 1.35738 4.85487 1.4611C3.91487 4.009 3.91487 6.81395 4.85487 9.36637C4.89487 9.47009 4.87487 9.58283 4.80487 9.67302C4.73487 9.75419 4.61987 9.80831 4.49987 9.80831Z" fill="#171717"/>
<path d="M7.49995 9.80823C7.45995 9.80823 7.41995 9.80372 7.37995 9.79019C7.18495 9.73156 7.07495 9.53765 7.14495 9.36178C8.08495 6.81387 8.08495 4.00892 7.14495 1.4565C7.07995 1.28063 7.18495 1.08672 7.37995 1.0281C7.57995 0.969471 7.78995 1.06417 7.85495 1.24004C8.84995 3.92775 8.84995 6.88603 7.85495 9.56922C7.80495 9.71803 7.65495 9.80823 7.49995 9.80823Z" fill="#171717"/>
<path d="M6 7.75645C4.605 7.75645 3.215 7.58058 1.875 7.22432C1.87 7.40471 1.705 7.55352 1.5 7.55352C1.295 7.55352 1.125 7.4002 1.125 7.2153V6.76435C1.125 6.65612 1.185 6.5524 1.28 6.48926C1.38 6.42613 1.505 6.40809 1.62 6.44417C4.445 7.29197 7.56 7.29197 10.385 6.44417C10.5 6.40809 10.625 6.42613 10.725 6.48926C10.825 6.5524 10.88 6.65612 10.88 6.76435V7.2153C10.88 7.4002 10.71 7.55352 10.505 7.55352C10.3 7.55352 10.135 7.40922 10.13 7.22432C8.785 7.58058 7.395 7.75645 6 7.75645Z" fill="#171717"/>
<path d="M10.5001 4.39688C10.4601 4.39688 10.4201 4.39237 10.3801 4.37884C7.55514 3.53104 4.44014 3.53104 1.61514 4.37884C1.41514 4.43747 1.20514 4.34277 1.14014 4.16689C1.08014 3.98651 1.18514 3.79711 1.38014 3.73848C4.36014 2.84108 7.64014 2.84108 10.6151 3.73848C10.8101 3.79711 10.9201 3.99102 10.8501 4.16689C10.8051 4.30669 10.6551 4.39688 10.5001 4.39688Z" fill="#171717"/>
</svg>
