<svg width="12" height="12" viewBox="0 0 12 12" fill="none" xmlns="http://www.w3.org/2000/svg">
<path d="M7.5 11.375H4.5C2.295 11.375 1.625 10.705 1.625 8.5V3.5C1.625 1.295 2.295 0.625 4.5 0.625H7.5C9.705 0.625 10.375 1.295 10.375 3.5V8.5C10.375 10.705 9.705 11.375 7.5 11.375ZM4.5 1.375C2.71 1.375 2.375 1.715 2.375 3.5V8.5C2.375 10.285 2.71 10.625 4.5 10.625H7.5C9.29 10.625 9.625 10.285 9.625 8.5V3.5C9.625 1.715 9.29 1.375 7.5 1.375H4.5Z" fill="#171717"/>
<path d="M7 3.125H5C4.795 3.125 4.625 2.955 4.625 2.75C4.625 2.545 4.795 2.375 5 2.375H7C7.205 2.375 7.375 2.545 7.375 2.75C7.375 2.955 7.205 3.125 7 3.125Z" fill="#171717"/>
<path d="M6.0001 9.92988C5.3651 9.92988 4.8501 9.41488 4.8501 8.77988C4.8501 8.14488 5.3651 7.62988 6.0001 7.62988C6.6351 7.62988 7.1501 8.14488 7.1501 8.77988C7.1501 9.41488 6.6351 9.92988 6.0001 9.92988ZM6.0001 8.37488C5.7801 8.37488 5.6001 8.55488 5.6001 8.77488C5.6001 8.99488 5.7801 9.17488 6.0001 9.17488C6.2201 9.17488 6.4001 8.99488 6.4001 8.77488C6.4001 8.55488 6.2201 8.37488 6.0001 8.37488Z" fill="#171717"/>
</svg>
