<svg width="25" height="25" viewBox="0 0 25 25" fill="none" xmlns="http://www.w3.org/2000/svg">
<circle cx="12.4961" cy="12.5" r="12.5" fill="#55ACED"/>
<path d="M7.51555 11.5299C6.77163 10.8026 6.3011 9.95103 6.39967 8.84214C6.40432 8.79359 6.39595 8.74407 6.40432 8.69746C6.47313 8.33722 6.47313 7.85755 6.77442 7.70704C6.97993 7.60411 7.18916 8.05951 7.39188 8.26537C8.79603 9.69371 10.4764 10.4822 12.4189 10.7074C12.776 10.7492 12.7184 10.5647 12.696 10.3472C12.5482 8.88292 13.4028 7.53712 14.7567 7.13318C15.6754 6.85936 16.5486 7.00015 17.2935 7.62645C17.6301 7.90901 17.9202 7.97407 18.2978 7.80317C18.6474 7.6449 19.0063 7.50799 19.4387 7.33029C19.2974 7.98281 18.8827 8.36441 18.4475 8.80039C18.8566 8.85088 19.1486 8.69164 19.4546 8.61784C19.5289 8.60036 19.6247 8.4887 19.6917 8.62658C19.7354 8.71494 19.6638 8.77708 19.6173 8.83729C19.3848 9.14024 19.1523 9.44708 18.8427 9.66749C18.5609 9.86849 18.4735 10.118 18.4698 10.4802C18.4354 14.4283 15.8298 17.8744 12.2004 18.758C10.1332 19.261 8.15068 18.9784 6.27692 17.9239C6.17835 17.8686 6.03422 17.8511 5.99609 17.6375C7.46999 17.755 8.79696 17.3646 10.0263 16.414C8.93086 16.2014 8.0177 15.812 7.60203 14.6856C7.60482 14.5711 7.60761 14.4574 7.6104 14.3429C7.85776 14.339 8.10418 14.3361 8.35153 14.3322C8.48172 14.4875 8.5152 14.3788 8.54309 14.2555C8.30225 14.1292 8.0549 14.0137 7.82056 13.8748C7.03758 13.4156 6.56798 12.7096 6.40711 11.7911C6.32342 11.3133 6.37363 11.2813 6.80604 11.4279C7.03944 11.5066 7.27192 11.5949 7.52392 11.524C7.53415 11.5425 7.54438 11.56 7.55554 11.5784C7.55554 11.5687 7.55833 11.5551 7.55368 11.5512C7.54252 11.5406 7.52857 11.5367 7.51555 11.5299Z" fill="white"/>
</svg>
