<svg width="25" height="25" viewBox="0 0 25 25" fill="none" xmlns="http://www.w3.org/2000/svg">
<circle cx="12.5" cy="12.5" r="12.5" fill="#C4C4C4"/>
<path d="M7.46517 11.0445C6.74986 10.3952 6.29743 9.63484 6.39221 8.64477C6.39668 8.60142 6.38863 8.55721 6.39668 8.51559C6.46284 8.19395 6.46284 7.76567 6.75254 7.63129C6.95015 7.53939 7.15133 7.946 7.34625 8.12979C8.69639 9.4051 10.3121 10.1091 12.1799 10.3102C12.5233 10.3475 12.4679 10.1828 12.4464 9.98857C12.3042 8.68118 13.1259 7.47957 14.4278 7.11891C15.3112 6.87443 16.1508 7.00014 16.867 7.55933C17.1907 7.81162 17.4697 7.8697 17.8327 7.71712C18.1689 7.5758 18.514 7.45356 18.9298 7.2949C18.7939 7.8775 18.3951 8.21822 17.9766 8.60749C18.37 8.65257 18.6508 8.51039 18.945 8.4445C19.0165 8.42889 19.1086 8.32919 19.173 8.4523C19.215 8.5312 19.1462 8.58668 19.1015 8.64043C18.8779 8.91093 18.6544 9.18489 18.3566 9.38169C18.0857 9.56115 18.0017 9.78396 17.9981 10.1073C17.965 13.6324 15.4596 16.7093 11.9698 17.4982C9.98216 17.9473 8.07586 17.695 6.27418 16.7535C6.1794 16.7041 6.04081 16.6885 6.00415 16.4977C7.42136 16.6026 8.69729 16.2541 9.87934 15.4054C8.82604 15.2155 7.948 14.8679 7.54832 13.8622C7.55101 13.7599 7.55369 13.6584 7.55637 13.5561C7.79421 13.5527 8.03116 13.5501 8.269 13.5466C8.39418 13.6853 8.42636 13.5882 8.45319 13.4781C8.22161 13.3654 7.98377 13.2622 7.75845 13.1383C7.00558 12.7282 6.55404 12.0979 6.39936 11.2777C6.31889 10.8512 6.36717 10.8226 6.78294 10.9535C7.00737 11.0237 7.2309 11.1026 7.47322 11.0393C7.48305 11.0558 7.49289 11.0714 7.50362 11.0879C7.50362 11.0792 7.5063 11.0671 7.50183 11.0636C7.4911 11.0541 7.47769 11.0506 7.46517 11.0445Z" fill="white"/>
</svg>
